<?xml version="1.0" encoding="UTF-8"?>
<svg id="Layer_2" data-name="Layer 2" xmlns="http://www.w3.org/2000/svg" viewBox="0 0 212.1 40.7">
  <g id="Layer_1-2" data-name="Layer 1">
    <g>
      <g>
        <g>
          <path d="m51.98,34.7h-3.54c-.09,0-.16.05-.2.13l-.71,1.64c-.03.08-.11.13-.2.13h-.28c-.16,0-.26-.16-.2-.3l2.93-6.66c.03-.08.11-.13.2-.13h.48c.09,0,.16.05.2.13l2.93,6.66c.06.14-.04.3-.2.3h-.3c-.09,0-.16-.05-.2-.13l-.71-1.64c-.03-.08-.11-.13-.2-.13Zm-.32-1.07l-1.25-2.88c-.08-.17-.32-.17-.4,0l-1.25,2.88c-.06.14.04.3.2.3h2.5c.16,0,.26-.16.2-.3Z"/>
          <path d="m64.26,29.81v6.5c0,.16-.13.3-.3.3h-.09c-.16,0-.3-.13-.3-.3v-4.62c0-.29-.38-.41-.55-.16l-2.1,3.15c-.12.18-.38.18-.49,0l-2.13-3.17c-.16-.24-.54-.13-.54.17v4.63c0,.16-.13.3-.3.3h-.07c-.16,0-.3-.13-.3-.3v-6.5c0-.16.13-.3.3-.3h.29c.1,0,.19.05.25.13l2.51,3.82c.12.18.38.18.5,0l2.51-3.82c.05-.08.15-.13.25-.13h.27c.16,0,.3.13.3.3Z"/>
          <path d="m70.78,31.32v5.06c0,.13-.1.23-.23.23h-.2c-.13,0-.23-.1-.23-.23v-.16c0-.21-.26-.32-.4-.16-.43.47-1.01.75-1.7.75-1.37,0-2.02-1.09-2.02-2.6v-2.89c0-.13.1-.23.23-.23h.2c.13,0,.23.1.23.23v2.83c0,1.25.49,1.93,1.49,1.93.85,0,1.55-.48,1.96-1.47.01-.03.02-.06.02-.1v-3.18c0-.13.1-.23.23-.23h.2c.13,0,.23.1.23.23Z"/>
          <path d="m72.41,36.4v-7.08c0-.12.09-.21.21-.21h.25c.12,0,.21.09.21.21v7.08c0,.12-.09.21-.21.21h-.25c-.12,0-.21-.09-.21-.21Z"/>
          <path d="m77.62,36.15c.03.08,0,.18-.06.24-.33.25-.72.42-1.16.42-.79,0-1.45-.53-1.45-1.6v-3.19c0-.12-.09-.21-.21-.21h-.47c-.12,0-.21-.09-.21-.21v-.31c0-.12.09-.21.21-.21h.47c.12,0,.21-.09.21-.21v-.87c0-.12.09-.21.21-.21h.25c.12,0,.21.09.21.21v.87c0,.12.09.21.21.21h1.62c.12,0,.21.09.21.21v.31c0,.12-.09.21-.21.21h-1.62c-.12,0-.21.09-.21.21v3.06c0,.68.41.98.9.98.26,0,.5-.09.72-.23.11-.07.26-.02.31.1l.08.21Z"/>
          <path d="m78.5,29.7c0-.3.2-.54.47-.54s.47.23.47.54-.2.54-.47.54-.47-.24-.47-.54Zm.56,6.91h-.19c-.13,0-.24-.11-.24-.24v-5.05c0-.13.11-.24.24-.24h.19c.13,0,.24.11.24.24v5.05c0,.13-.11.24-.24.24Z"/>
          <path d="m85.12,31.49v-2.18c0-.11.09-.21.21-.21h.25c.11,0,.21.09.21.21v7.08c0,.11-.09.21-.21.21h-.25c-.11,0-.21-.09-.21-.21v-.2c0-.19-.24-.28-.37-.13-.43.46-1.03.74-1.76.74-1.47,0-2.4-1.18-2.4-2.96s.92-2.97,2.4-2.97c.73,0,1.33.28,1.76.74.13.14.37.06.37-.13Zm0,3.18v-1.65s0-.07-.02-.09c-.45-.95-1.13-1.3-1.94-1.3-1.21,0-1.9.8-1.9,2.23s.68,2.22,1.9,2.22c.81,0,1.48-.35,1.94-1.3.01-.03.02-.06.02-.09Z"/>
          <path d="m87.28,29.7c0-.3.2-.54.47-.54s.47.23.47.54-.2.54-.47.54-.47-.24-.47-.54Zm.63,6.91h-.32c-.1,0-.17-.08-.17-.17v-5.17c0-.1.08-.17.17-.17h.32c.1,0,.17.08.17.17v5.17c0,.1-.08.17-.17.17Z"/>
          <path d="m94.14,35.03c0,.99-.8,1.79-2.31,1.79-.93,0-1.76-.37-2.42-1.02-.09-.09-.1-.24-.01-.34l.09-.11c.09-.11.26-.12.36-.03.53.5,1.16.81,1.99.81.92,0,1.64-.35,1.64-1.02s-.66-.87-1.78-.99c-1.17-.12-2.28-.44-2.28-1.57s.97-1.67,2.28-1.67c.79,0,1.53.35,2.03.77.1.09.12.24.04.35l-.11.15c-.09.12-.26.13-.37.04-.4-.35-.93-.61-1.63-.62-.67-.01-1.59.19-1.59.93,0,.69.79.82,1.76.91,1.33.13,2.3.55,2.3,1.62Z"/>
          <path d="m97.64,36.82c-1.68,0-2.67-1.17-2.67-2.97s1-2.98,2.67-2.98c1.07,0,1.72.46,2.15,1.08.09.13.05.31-.08.39l-.17.1c-.13.08-.29.04-.38-.08-.36-.54-.96-.76-1.51-.76-1.17,0-2.01.74-2.01,2.24s.84,2.23,2.01,2.23c.57,0,1.19-.22,1.54-.79.08-.12.24-.16.37-.09l.17.09c.14.08.18.26.1.39-.42.67-1.08,1.14-2.18,1.14Z"/>
          <path d="m100.99,29.7c0-.3.2-.54.47-.54s.47.23.47.54-.2.54-.47.54-.47-.24-.47-.54Zm.59,6.91h-.24c-.12,0-.21-.09-.21-.21v-5.1c0-.12.09-.21.21-.21h.24c.12,0,.21.09.21.21v5.1c0,.12-.09.21-.21.21Z"/>
          <path d="m104.08,36.23v2.18c0,.12-.1.22-.22.22h-.22c-.12,0-.22-.1-.22-.22v-7.11c0-.12.1-.22.22-.22h.22c.12,0,.22.1.22.22v.15c0,.2.24.3.38.16.43-.46,1.03-.73,1.75-.73,1.47,0,2.4,1.18,2.4,2.96s-.92,2.97-2.4,2.97c-.72,0-1.33-.28-1.75-.73-.13-.14-.38-.04-.38.16Zm0-3.21v1.65s0,.07.02.1c.45.95,1.13,1.3,1.94,1.3,1.21,0,1.9-.8,1.9-2.23s-.68-2.22-1.9-2.22c-.8,0-1.48.35-1.94,1.3-.01.03-.02.07-.02.1Z"/>
          <path d="m109.91,36.42v-7.13c0-.1.08-.18.18-.18h.3c.1,0,.18.08.18.18v7.13c0,.1-.08.18-.18.18h-.3c-.1,0-.18-.08-.18-.18Z"/>
          <path d="m112.09,29.7c0-.3.2-.54.47-.54s.47.23.47.54-.2.54-.47.54-.47-.24-.47-.54Zm.61,6.91h-.28c-.11,0-.19-.09-.19-.19v-5.14c0-.11.09-.19.19-.19h.28c.11,0,.19.09.19.19v5.14c0,.11-.09.19-.19.19Z"/>
          <path d="m114.52,36.41v-5.13c0-.11.09-.2.2-.2h.27c.11,0,.2.09.2.2v.29c0,.19.23.26.35.12.43-.51,1.03-.81,1.76-.81,1.37,0,2.02,1.09,2.02,2.6v2.93c0,.11-.09.2-.2.2h-.27c-.11,0-.2-.09-.2-.2v-2.86c0-1.25-.49-1.93-1.49-1.93-.81,0-1.5.45-1.91,1.36-.05.1-.07.22-.07.33v3.1c0,.11-.09.2-.2.2h-.27c-.11,0-.2-.09-.2-.2Z"/>
          <path d="m125.39,33.55v1.99c0,.28.03.52.09.75.05.16-.07.32-.23.32h-.18c-.1,0-.19-.06-.23-.15-.08-.23-.12-.47-.12-.73v-.02c-.35.6-1.04,1.1-2,1.1s-2.25-.49-2.25-1.96,1.29-1.96,2.25-1.96,1.65.5,2,1.1v-.46c0-1.34-.61-1.95-1.82-1.95-.6,0-1.08.18-1.51.47-.12.08-.29.04-.36-.09l-.08-.17c-.05-.11-.03-.24.07-.31.52-.37,1.27-.63,1.99-.63,1.48,0,2.39.91,2.39,2.67Zm-.66,1.21c-.38-.86-1.21-1.17-1.96-1.17-.65,0-1.65.23-1.65,1.27s1,1.27,1.65,1.27c.75,0,1.58-.31,1.96-1.17v-.2Z"/>
          <path d="m126.94,36.45v-5.2c0-.09.07-.16.16-.16h.34c.09,0,.16.07.16.16v.57c0,.16.2.22.29.09.41-.55,1.04-.88,1.73-.92.09,0,.17.07.17.16v.43c0,.09-.07.15-.15.16-.93.05-1.71.6-2.03,1.63,0,.02,0,.04,0,.05v3.03c0,.09-.07.16-.16.16h-.34c-.09,0-.16-.07-.16-.16Z"/>
          <path d="m135.4,31.29l-3.31,7.25c-.02.05-.08.09-.13.09h-.39c-.11,0-.18-.11-.13-.21l1.01-2.14s.02-.08,0-.12l-2.22-4.87c-.04-.1.03-.21.13-.21h.42c.06,0,.11.03.13.09l1.79,3.91c.05.12.22.11.27,0l1.76-3.91c.02-.05.08-.09.13-.09h.4c.11,0,.18.11.13.21Z"/>
          <path d="m145.12,33.06c0,2.18-1.33,3.55-3.4,3.55h-2.41c-.19,0-.35-.16-.35-.35v-6.4c0-.19.16-.35.35-.35h2.41c2.07,0,3.4,1.37,3.4,3.55Zm-.7,0c0-1.81-1.14-2.76-2.75-2.76h-1.68c-.19,0-.35.16-.35.35v4.82c0,.19.16.35.35.35h1.68c1.61,0,2.75-.94,2.75-2.76Z"/>
          <path d="m148.83,36.11c.78,0,1.28-.22,1.74-.68.09-.1.25-.08.33.03l.16.21c.07.09.06.21-.02.29-.58.58-1.28.86-2.25.86-1.71,0-2.69-1.16-2.69-2.97s.98-2.98,2.65-2.98c1.57,0,2.58,1.06,2.58,2.97,0,.09,0,.14-.02.18h-4.29c-.13,0-.24.11-.22.24.14,1.24.93,1.84,2.03,1.84Zm-1.74-2.78h3.3c.15,0,.25-.14.22-.29-.26-1.02-.97-1.47-1.84-1.47-.93,0-1.65.49-1.9,1.47-.04.14.07.29.22.29Z"/>
          <path d="m157,35.03c0,.99-.8,1.79-2.31,1.79-.95,0-1.78-.38-2.44-1.04-.08-.08-.08-.21,0-.29l.14-.17c.08-.1.23-.1.32-.01.54.51,1.17.83,2,.83.92,0,1.64-.35,1.64-1.02s-.66-.87-1.78-.99c-1.17-.12-2.28-.44-2.28-1.57s.97-1.67,2.28-1.67c.81,0,1.57.37,2.07.81.08.07.09.2.02.29l-.16.21c-.08.1-.22.12-.31.03-.4-.37-.94-.64-1.66-.65-.67-.01-1.59.19-1.59.93,0,.69.79.82,1.76.91,1.33.13,2.3.55,2.3,1.62Z"/>
          <path d="m158.04,29.7c0-.3.2-.54.47-.54s.47.23.47.54-.2.54-.47.54-.47-.24-.47-.54Zm.61,6.91h-.29c-.1,0-.19-.08-.19-.19v-5.15c0-.1.08-.19.19-.19h.29c.1,0,.19.08.19.19v5.15c0,.1-.08.19-.19.19Z"/>
          <path d="m165.33,36c0,1.99-1.19,2.84-2.62,2.84-.72,0-1.5-.26-2-.64-.08-.06-.09-.16-.05-.25l.13-.27c.06-.11.2-.15.3-.08.4.28.93.5,1.55.5,1.3,0,2.02-.66,2.02-2v-.56c-.4.77-1.24,1.27-2.13,1.27-1.47,0-2.4-1.18-2.4-2.96s.92-2.97,2.4-2.97c.73,0,1.34.28,1.77.75.13.14.36.06.36-.13v-.21c0-.11.09-.21.21-.21h.25c.11,0,.21.09.21.21v4.71Zm-.66-1.33v-1.66s0-.06-.02-.09c-.45-.95-1.13-1.3-1.94-1.3-1.21,0-1.9.8-1.9,2.23s.68,2.22,1.9,2.22c.81,0,1.49-.35,1.94-1.3.01-.03.02-.06.02-.09Z"/>
          <path d="m166.94,36.42v-5.15c0-.1.08-.18.18-.18h.3c.1,0,.18.08.18.18v.34c0,.18.22.25.33.11.43-.53,1.04-.84,1.78-.84,1.37,0,2.02,1.09,2.02,2.6v2.94c0,.1-.08.18-.18.18h-.3c-.1,0-.18-.08-.18-.18v-2.88c0-1.25-.49-1.93-1.49-1.93-.8,0-1.47.43-1.89,1.32-.06.13-.09.27-.09.41v3.07c0,.1-.08.18-.18.18h-.3c-.1,0-.18-.08-.18-.18Z"/>
          <path d="m180.15,34.7h-3.41c-.13,0-.24.07-.29.19l-.66,1.52c-.05.12-.16.19-.29.19h-.06c-.23,0-.38-.23-.29-.44l2.84-6.46c.05-.12.16-.19.29-.19h.35c.13,0,.24.07.29.19l2.84,6.46c.09.21-.06.44-.29.44h-.08c-.13,0-.24-.07-.29-.19l-.66-1.52c-.05-.12-.16-.19-.29-.19Zm-.32-1.21l-1.1-2.53c-.11-.25-.47-.25-.58,0l-1.1,2.53c-.09.21.06.44.29.44h2.19c.23,0,.38-.23.29-.44Z"/>
          <path d="m187.65,36c0,1.99-1.19,2.84-2.62,2.84-.72,0-1.5-.26-2-.64-.08-.06-.09-.16-.05-.25l.13-.27c.05-.11.19-.15.3-.08.4.28.93.5,1.55.5,1.3,0,2.02-.66,2.02-2v-.56c-.4.77-1.24,1.27-2.13,1.27-1.47,0-2.4-1.18-2.4-2.96s.92-2.97,2.4-2.97c.73,0,1.34.28,1.77.75.13.14.36.06.36-.13v-.21c0-.11.09-.2.2-.2h.25c.11,0,.2.09.2.2v4.71Zm-.66-1.33v-1.66s0-.06-.02-.09c-.45-.95-1.13-1.3-1.94-1.3-1.21,0-1.9.8-1.9,2.23s.68,2.22,1.9,2.22c.81,0,1.49-.35,1.94-1.3.01-.03.02-.06.02-.09Z"/>
          <path d="m191.65,36.11c.78,0,1.29-.22,1.75-.69.09-.09.24-.08.32.02l.17.23c.06.08.06.2-.01.28-.58.59-1.28.87-2.26.87-1.71,0-2.69-1.16-2.69-2.97s.98-2.98,2.65-2.98c1.57,0,2.58,1.06,2.58,2.97,0,.09,0,.14-.02.18h-4.3c-.12,0-.23.11-.21.23.14,1.24.92,1.86,2.03,1.86Zm-1.76-2.78h3.33c.14,0,.24-.14.21-.27-.26-1.03-.97-1.48-1.84-1.48-.94,0-1.66.5-1.9,1.48-.03.14.07.27.21.27Z"/>
          <path d="m195.37,36.41v-5.13c0-.11.09-.2.2-.2h.27c.11,0,.2.09.2.2v.29c0,.19.23.26.35.12.43-.51,1.03-.81,1.76-.81,1.37,0,2.02,1.09,2.02,2.6v2.92c0,.11-.09.2-.2.2h-.27c-.11,0-.2-.09-.2-.2v-2.86c0-1.25-.49-1.93-1.49-1.93-.74,0-1.36.36-1.78,1.11-.13.23-.19.5-.19.77v2.9c0,.11-.09.2-.2.2h-.27c-.11,0-.2-.09-.2-.2Z"/>
          <path d="m204.1,36.82c-1.68,0-2.67-1.17-2.67-2.97s1-2.98,2.67-2.98c1.08,0,1.74.47,2.16,1.1.08.12.05.28-.07.36l-.21.13c-.12.07-.27.04-.34-.08-.35-.56-.96-.78-1.53-.78-1.17,0-2.01.74-2.01,2.24s.84,2.23,2.01,2.23c.57,0,1.2-.23,1.55-.81.07-.11.22-.15.33-.09l.21.12c.13.07.17.23.09.36-.42.69-1.09,1.16-2.19,1.16Z"/>
          <path d="m212.08,31.33l-3.28,7.2c-.03.06-.09.1-.16.1h-.33c-.13,0-.21-.13-.16-.25l.99-2.09s.02-.1,0-.15l-2.2-4.82c-.05-.12.03-.25.16-.25h.36c.07,0,.13.04.16.1l1.75,3.85c.06.14.26.14.32,0l1.73-3.84c.03-.06.09-.1.16-.1h.35c.13,0,.21.13.16.25Z"/>
        </g>
        <g>
          <path d="m70.22,24.13l-8.14-20.12c-.13-.33-.46-.55-.81-.55h-5.42c-.36,0-.68.22-.81.55l-8.14,20.12c-.23.58.19,1.2.81,1.2h4.43c.37,0,.69-.22.82-.57l.99-2.65c.13-.34.45-.57.82-.57h7.51c.37,0,.69.22.82.57l1,2.65c.13.34.45.57.82.57h4.5c.62,0,1.04-.63.81-1.2Zm-10.44-7.51h-2.51c-.61,0-1.03-.61-.82-1.18l1.26-3.37c.28-.76,1.36-.76,1.64,0l1.26,3.37c.21.57-.21,1.18-.82,1.18Z"/>
          <path d="m81.21,3.46h-9.29c-.48,0-.87.39-.87.88v20.12c0,.48.39.87.87.87h9.29c6.78,0,11.11-4.03,11.11-10.93s-4.34-10.94-11.11-10.94Zm-.5,16.06h-2.71c-.48,0-.87-.39-.87-.88v-8.5c0-.48.39-.88.87-.88h2.71c3.34,0,5.41,1.81,5.41,5.12s-2.07,5.12-5.41,5.12Z"/>
          <path d="m103.7,13.59l6.27-8.74c.42-.58,0-1.38-.71-1.38h-4.66c-.29,0-.56.14-.72.38l-3.05,4.47c-.35.51-1.1.51-1.44,0l-3.05-4.47c-.16-.24-.43-.38-.72-.38h-5.08c-.71,0-1.12.8-.71,1.38l6.27,8.87c.21.3.21.7,0,1.01l-6.48,9.24c-.41.58,0,1.38.72,1.38h4.66c.29,0,.56-.14.72-.38l3.28-4.81c.35-.51,1.1-.51,1.44,0l3.28,4.81c.16.24.43.38.72.38h5.07c.71,0,1.12-.79.72-1.37l-6.52-9.37c-.21-.3-.21-.71,0-1.01Z"/>
          <path d="m128.06,19.01c-.28-.42-.16-1,.28-1.25,2.14-1.22,3.51-3.4,3.51-6.58,0-5.22-3.69-7.72-8.35-7.72h-11.51c-.48,0-.87.39-.87.88v20.12c0,.48.39.87.87.87h4.28c.48,0,.87-.39.87-.87v-4.68c0-.48.39-.87.87-.87h2.74c.29,0,.57.15.73.39l3.72,5.65c.16.25.44.39.73.39h4.8c.7,0,1.12-.79.72-1.37l-3.4-4.95Zm-5.06-5.21h-4.98c-.48,0-.87-.39-.87-.87v-3.12c0-.48.39-.88.87-.88h4.98c1.57,0,2.69.56,2.69,2.44s-1.12,2.44-2.69,2.44Z"/>
        </g>
        <g>
          <path d="m144.33,13.41c-4.12-.47-7.56-1.24-7.56-4.1,0-3.04,3.79-4.43,6.97-4.4,2.69.03,5.01.83,6.65,2.68.23.26.63.27.88.02l.13-.13c.22-.23.22-.58.01-.82-1.73-1.94-4.38-3.2-7.71-3.2-4.24,0-8.19,2.1-8.19,5.87s4.14,5.02,8.4,5.52c4.73.56,7.48,1.36,7.48,4.22s-2.52,4.84-7.06,4.84c-3.26,0-6.07-1.09-8.07-3.5-.24-.29-.68-.29-.92,0l-.12.15c-.18.22-.18.54,0,.76,2.15,2.66,5.43,4.03,9.07,4.03,5.39,0,8.36-2.77,8.36-6.37,0-3.87-3.39-5.05-8.31-5.58Z"/>
          <path d="m163.27,23.42c-.15-.34-.56-.47-.87-.27-.74.49-1.51.83-2.37.83-1.53,0-2.82-1.06-2.82-3.19v-10.12c0-.33.27-.6.6-.6h4.95c.33,0,.6-.27.6-.6v-.17c0-.33-.27-.6-.6-.6h-4.95c-.33,0-.6-.27-.6-.6v-2.53c0-.33-.27-.6-.6-.6h0c-.33,0-.6.27-.6.6v2.53c0,.33-.27.6-.6.6h-1.47c-.33,0-.6.27-.6.6v.17c0,.33.27.6.6.6h1.47c.33,0,.6.27.6.6v10.33c0,2.92,1.84,4.34,3.86,4.34,1.18,0,2.31-.5,3.22-1.2.22-.17.29-.46.18-.71h0Z"/>
          <path d="m176.4,9.32v9.8c0,.08-.01.15-.04.23-1.26,3.17-3.47,4.61-6.13,4.61-3.37,0-4.97-2.36-4.97-6.37v-8.26c0-.33-.27-.6-.6-.6h0c-.33,0-.6.27-.6.6v8.35c0,4.43,1.88,7.67,5.98,7.67,2.18,0,4.01-.92,5.29-2.52.36-.45,1.07-.21,1.07.36v1.56c0,.33.27.6.6.6h0c.33,0,.6-.27.6-.6v-15.42c0-.33-.27-.6-.6-.6h0c-.33,0-.6.27-.6.6Z"/>
          <path d="m192.41,2.9h0c-.33,0-.6.27-.6.6v6.72c0,.56-.7.8-1.06.37-1.3-1.55-3.17-2.47-5.39-2.47-4.43,0-7.04,3.48-7.04,8.62s2.61,8.59,7.04,8.59c2.22,0,4.09-.92,5.39-2.47.36-.43,1.06-.19,1.06.37v1.5c0,.33.27.6.6.6h0c.33,0,.6-.27.6-.6V3.5c0-.33-.27-.6-.6-.6Zm-.6,16.55c0,.09-.02.17-.06.25-1.33,2.87-3.49,4.28-6.16,4.28-3.81,0-6.05-2.75-6.05-7.23s2.24-7.26,6.05-7.26c2.67,0,4.84,1.41,6.16,4.28.04.08.06.17.06.25v5.43Z"/>
          <rect x="194.3" y="8.72" width="1.2" height="16.62" rx=".6" ry=".6"/>
          <path d="m194.89,5.47c-.56,0-.99.47-.99,1.12s.43,1.15.99,1.15.97-.5.97-1.15-.4-1.12-.97-1.12Z"/>
          <path d="m204.45,8.13c-4.83,0-7.65,3.37-7.65,8.62s2.82,8.62,7.65,8.62,7.65-3.36,7.65-8.62-2.82-8.62-7.65-8.62Zm0,15.85c-3.84,0-6.43-2.51-6.43-7.23s2.59-7.26,6.43-7.26,6.43,2.51,6.43,7.26-2.59,7.23-6.43,7.23Z"/>
        </g>
      </g>
      <path d="m35.57,30.5c2.5,0,3.93-6.79,3.93-10.19,0-3.16-1.37-10.13-3.93-10.13-2.92,0-6.26,5.54-6.26,10.25,0,4.35,3.28,10.07,6.26,10.07ZM5.06,10.19c-2.5,0-3.93,6.79-3.93,10.19,0,3.16,1.31,10.13,3.93,10.13,2.8,0,6.26-5.54,6.26-9.95s-3.22-10.37-6.26-10.37Zm5.12,25.45c0,2.57,6.73,3.93,10.13,3.93,3.22,0,10.13-1.31,10.13-3.93,0-2.92-5.3-6.26-10.19-6.26-4.35,0-10.07,3.27-10.07,6.26Zm10.25-24.31c4.29,0,10.01-3.28,10.01-6.26,0-2.57-6.49-3.93-10.19-3.93-3.16,0-10.07,1.37-10.07,3.93,0,2.92,5.9,6.25,10.25,6.25h0Zm-.12,29.38c-11.32-.06-20.32-9.06-20.32-20.38S9.06,0,20.38,0c11.26.06,20.26,9.12,20.26,20.44-.05,11.26-9.06,20.2-20.32,20.26h0Z"/>
    </g>
  </g>
</svg>